{
    "asset" : {
        "generator" : "Khronos glTF Blender I/O v1.2.75",
        "version" : "2.0"
    },
    "scene" : 0,
    "scenes" : [
        {
            "name" : "Scene",
            "nodes" : [
                0
            ]
        }
    ],
    "nodes" : [
        {
            "mesh" : 0,
            "name" : "Miniature Final model_LOW RES",
            "rotation" : [
                0,
                180,
                0,
                1
            ]
        }
    ],
    "materials" : [
        {
            "doubleSided" : true,
            "emissiveFactor" : [
                0,
                0,
                0
            ],
            "name" : "Material.004",
            "pbrMetallicRoughness" : {
                "baseColorTexture" : {
                    "index" : 0,
                    "texCoord" : 0
                },
                "metallicFactor" : 0.47727274894714355,
                "roughnessFactor" : 0.5318179726600647
            }
        }
    ],
    "meshes" : [
        {
            "name" : "Miniature Final model_instant meshes.001",
            "primitives" : [
                {
                    "attributes" : {
                        "POSITION" : 0,
                        "NORMAL" : 1,
                        "TEXCOORD_0" : 2,
                        "COLOR_0" : 3
                    },
                    "indices" : 4,
                    "material" : 0
                }
            ]
        }
    ],
    "textures" : [
        {
            "source" : 0
        }
    ],
    "images" : [
        {
            "bufferView" : 5,
            "mimeType" : "image/jpeg",
            "name" : "Diffuse_-Francis_V2"
        }
    ],
    "accessors" : [
        {
            "bufferView" : 0,
            "componentType" : 5126,
            "count" : 43626,
            "max" : [
                0.4795163869857788,
                1.0532478094100952,
                0.04024230316281319
            ],
            "min" : [
                -0.38563933968544006,
                0.01336216926574707,
                -0.053977031260728836
            ],
            "type" : "VEC3"
        },
        {
            "bufferView" : 1,
            "componentType" : 5126,
            "count" : 43626,
            "type" : "VEC3"
        },
        {
            "bufferView" : 2,
            "componentType" : 5126,
            "count" : 43626,
            "type" : "VEC2"
        },
        {
            "bufferView" : 3,
            "componentType" : 5126,
            "count" : 43626,
            "type" : "VEC4"
        },
        {
            "bufferView" : 4,
            "componentType" : 5123,
            "count" : 247776,
            "type" : "SCALAR"
        }
    ],
    "bufferViews" : [
        {
            "buffer" : 0,
            "byteLength" : 523512,
            "byteOffset" : 0
        },
        {
            "buffer" : 0,
            "byteLength" : 523512,
            "byteOffset" : 523512
        },
        {
            "buffer" : 0,
            "byteLength" : 349008,
            "byteOffset" : 1047024
        },
        {
            "buffer" : 0,
            "byteLength" : 698016,
            "byteOffset" : 1396032
        },
        {
            "buffer" : 0,
            "byteLength" : 495552,
            "byteOffset" : 2094048
        },
        {
            "buffer" : 0,
            "byteLength" : 526339,
            "byteOffset" : 2589600
        }
    ],
    "buffers" : [
        {
            "byteLength" : 3115940,
            "uri" : "data:application/octet-stream;base64,"
        }
    ]
}
